<svg xmlns="http://www.w3.org/2000/svg" viewBox="349 186 847 505" version="1.1">
  <path d="M 836.049 200.027 C 834.701 202.212, 833.238 204, 832.799 204 C 832.360 204, 832 204.679, 832 205.509 C 832 206.339, 830.650 208.431, 829 210.157 C 827.350 211.884, 826 213.905, 826 214.648 C 826 215.392, 825.656 216, 825.236 216 C 824.816 216, 823.360 217.800, 822 220 C 820.640 222.200, 819.214 224, 818.831 224 C 818.448 224, 817.850 224.897, 817.502 225.994 C 817.154 227.091, 816.319 228.553, 815.648 229.244 C 814.976 229.935, 812.418 233.425, 809.963 237 C 807.508 240.575, 805.275 243.725, 805 244 C 804.725 244.275, 802.489 247.425, 800.031 251 C 797.573 254.575, 794.760 258.372, 793.781 259.439 C 792.801 260.505, 792 261.967, 792 262.689 C 792 263.410, 791.626 264, 791.169 264 C 790.712 264, 789.702 265.238, 788.926 266.750 C 788.149 268.262, 786.723 270.228, 785.757 271.117 C 784.791 272.007, 784 273.159, 784 273.679 C 784 274.198, 783.200 275.495, 782.223 276.561 C 781.245 277.628, 779.348 280.075, 778.006 282 C 776.664 283.925, 774.989 286.095, 774.283 286.821 C 773.577 287.548, 773 288.491, 773 288.916 C 773 289.341, 771.876 290.996, 770.501 292.594 C 769.127 294.193, 768.002 296.063, 768.001 296.750 C 768.001 297.438, 767.656 298, 767.236 298 C 766.816 298, 765.360 299.800, 764 302 C 762.640 304.200, 761.239 306, 760.885 306 C 760.532 306, 759.683 307.350, 759 309 C 758.317 310.650, 757.459 312, 757.094 312 C 756.730 312, 755.698 313.238, 754.802 314.750 C 753.907 316.262, 752.010 318.850, 750.588 320.500 C 749.166 322.150, 748.002 324.063, 748.001 324.750 C 748.001 325.438, 747.647 326, 747.216 326 C 746.784 326, 745.643 327.334, 744.681 328.964 C 743.718 330.594, 742.378 332.506, 741.702 333.214 C 741.027 333.921, 738.456 337.535, 735.987 341.245 C 733.519 344.955, 731.163 347.992, 730.750 347.995 C 730.337 347.998, 730 348.590, 730 349.311 C 730 350.033, 729.212 351.495, 728.250 352.561 C 727.288 353.628, 725.375 356.184, 724 358.243 C 722.625 360.302, 721.163 361.989, 720.750 361.993 C 720.337 361.997, 720 362.590, 720 363.311 C 720 364.033, 719.191 365.495, 718.201 366.561 C 717.212 367.628, 714.431 371.425, 712.022 375 C 709.613 378.575, 706.822 382.228, 705.821 383.117 C 704.819 384.007, 704 385.469, 704 386.367 C 704 387.265, 703.663 388.003, 703.250 388.007 C 702.837 388.011, 701.376 389.698, 700.001 391.757 C 698.627 393.816, 696.940 396.095, 696.251 396.821 C 695.563 397.548, 695 398.513, 695 398.966 C 695 399.418, 693.650 401.234, 692 403 C 690.350 404.766, 689 406.544, 689 406.950 C 689 407.357, 687.876 408.996, 686.501 410.594 C 685.127 412.193, 684.002 413.856, 684.001 414.292 C 684.001 414.727, 683.074 416.077, 681.942 417.292 L 679.884 419.500 707.942 419.766 L 736 420.031 736 422.969 C 736 424.584, 735.599 426.940, 735.109 428.203 C 734.619 429.466, 733.223 433.875, 732.006 438 C 730.790 442.125, 729.391 446.281, 728.897 447.236 C 728.404 448.191, 728 450.104, 728 451.486 C 728 452.869, 727.550 454, 727 454 C 726.450 454, 726 454.981, 726 456.179 C 726 458.481, 724.351 464.319, 722.877 467.236 C 722.395 468.191, 722 469.885, 722 471 C 722 472.115, 721.589 473.809, 721.086 474.764 C 719.872 477.071, 713.988 496.153, 713.995 497.764 C 713.998 498.459, 713.596 499.809, 713.103 500.764 C 712.609 501.719, 711.259 505.762, 710.103 509.750 C 708.946 513.737, 707.054 520.263, 705.897 524.250 C 704.741 528.237, 703.391 532.281, 702.897 533.236 C 702.404 534.191, 702 535.852, 702 536.927 C 702 538.002, 701.600 539.129, 701.110 539.432 C 700.621 539.734, 699.946 541.561, 699.610 543.491 C 699.275 545.421, 698.726 548.575, 698.391 550.500 C 698.055 552.425, 697.380 554, 696.891 554 C 696.401 554, 696 555.350, 696 557 C 696 558.650, 695.550 560, 695 560 C 694.450 560, 694 560.981, 694 562.179 C 694 564.180, 692.850 568.483, 690.975 573.500 C 690.564 574.600, 689.683 577.525, 689.017 580 C 688.350 582.475, 687.399 585.281, 686.903 586.236 C 686.406 587.191, 686 589.302, 686 590.927 C 686 592.552, 685.550 594.160, 685 594.500 C 684.450 594.840, 684 596.216, 684 597.559 C 684 598.902, 684.450 600, 685 600 C 685.550 600, 686 599.392, 686 598.648 C 686 597.905, 687.350 595.884, 689 594.157 C 690.650 592.431, 692 590.339, 692 589.509 C 692 588.679, 692.374 588, 692.831 588 C 693.288 588, 694.301 586.763, 695.081 585.250 C 695.861 583.737, 697.288 581.628, 698.250 580.561 C 699.212 579.495, 700 578.070, 700 577.395 C 700 576.719, 700.351 576.017, 700.780 575.833 C 701.210 575.650, 707.137 567.175, 713.952 557 C 720.767 546.825, 726.716 538.350, 727.172 538.167 C 727.627 537.983, 728 537.175, 728 536.371 C 728 535.567, 729.125 533.784, 730.500 532.409 C 731.875 531.034, 733 529.550, 733 529.110 C 733 528.671, 734.124 527.004, 735.499 525.406 C 736.873 523.807, 737.998 521.938, 737.999 521.250 C 737.999 520.563, 738.420 520, 738.933 520 C 739.446 520, 740.133 519.155, 740.461 518.122 C 740.789 517.090, 742.169 514.952, 743.527 513.372 C 744.886 511.793, 745.998 509.938, 745.999 509.250 C 745.999 508.563, 746.395 508, 746.879 508 C 747.362 508, 748.317 506.650, 749 505 C 749.683 503.350, 750.638 502, 751.121 502 C 751.605 502, 752 501.410, 752 500.689 C 752 499.967, 752.900 498.411, 754 497.230 C 755.100 496.050, 756.001 494.727, 756.001 494.292 C 756.002 493.856, 757.127 492.193, 758.501 490.594 C 759.876 488.996, 761 487.370, 761 486.980 C 761 486.590, 762.273 484.813, 763.829 483.031 C 765.385 481.249, 767.522 478.150, 768.579 476.145 C 769.636 474.140, 771.288 471.628, 772.250 470.561 C 773.212 469.495, 774 468.132, 774 467.532 C 774 466.932, 774.900 465.793, 776 465 C 777.100 464.207, 778 462.758, 778 461.779 C 778 460.801, 778.420 460, 778.933 460 C 779.446 460, 780.150 459.103, 780.498 458.006 C 780.846 456.909, 781.664 455.447, 782.316 454.756 C 783.972 452.999, 794 438.171, 794 437.478 C 794 437.165, 795.090 435.819, 796.422 434.487 C 797.755 433.154, 799.135 431.150, 799.490 430.032 C 799.845 428.914, 800.554 428, 801.067 428 C 801.580 428, 802 427.137, 802 426.083 C 802 425.029, 802.377 424.017, 802.839 423.833 C 803.300 423.650, 807.442 417.875, 812.044 411 C 816.646 404.125, 820.965 397.935, 821.640 397.244 C 822.316 396.553, 823.154 395.091, 823.502 393.994 C 823.850 392.897, 824.554 392, 825.067 392 C 825.580 392, 826 391.410, 826 390.689 C 826 389.967, 826.945 388.363, 828.101 387.122 C 829.256 385.882, 829.893 384.560, 829.517 384.184 C 829.141 383.808, 816.945 383.500, 802.416 383.500 L 776 383.500 776 380.750 C 776 379.238, 776.450 378, 777 378 C 777.550 378, 778 376.688, 778 375.083 C 778 373.479, 778.338 372.017, 778.752 371.833 C 779.672 371.425, 784 358.870, 784 356.608 C 784 355.712, 784.868 353.071, 785.928 350.739 C 786.989 348.408, 789.254 342.225, 790.963 337 C 792.672 331.775, 794.504 326.719, 795.035 325.764 C 795.566 324.809, 796 323.121, 796 322.014 C 796 320.906, 796.450 320, 797 320 C 797.550 320, 798 318.965, 798 317.700 C 798 316.435, 798.358 314.973, 798.796 314.450 C 799.234 313.928, 800.163 311.700, 800.862 309.500 C 801.561 307.300, 802.490 304.600, 802.928 303.500 C 803.365 302.400, 804.265 299.700, 804.928 297.500 C 805.590 295.300, 806.501 292.600, 806.952 291.500 C 807.403 290.400, 808.371 287.475, 809.104 285 C 809.836 282.525, 810.964 279.456, 811.610 278.180 C 812.256 276.905, 814.503 270.605, 816.603 264.180 C 818.703 257.756, 820.777 252.350, 821.211 252.167 C 821.645 251.983, 822 250.547, 822 248.976 C 822 247.404, 822.450 245.840, 823 245.500 C 823.550 245.160, 824 243.784, 824 242.441 C 824 241.098, 824.450 240, 825 240 C 825.550 240, 826 238.902, 826 237.559 C 826 236.216, 826.450 234.840, 827 234.500 C 827.550 234.160, 828 232.874, 828 231.641 C 828 230.408, 828.379 228.973, 828.842 228.450 C 829.306 227.928, 830.768 224.015, 832.092 219.755 C 833.417 215.495, 834.837 212.008, 835.250 212.005 C 835.663 212.002, 836 210.902, 836 209.559 C 836 208.216, 836.450 206.840, 837 206.500 C 837.550 206.160, 838 204.810, 838 203.500 C 838 202.190, 838.450 200.840, 839 200.500 C 840.156 199.785, 840.369 195.987, 839.250 196.027 C 838.837 196.042, 837.397 197.842, 836.049 200.027 M 540.481 316 L 540.500 351.500 564 351.527 L 587.500 351.554 564.263 351.259 L 541.025 350.964 540.744 315.732 L 540.462 280.500 540.481 316 M 647.485 406 C 647.485 475.575, 647.604 504.037, 647.750 469.250 C 647.896 434.462, 647.896 377.537, 647.750 342.750 C 647.604 307.962, 647.485 336.425, 647.485 406 M 862.481 316 L 862.500 351.500 894.246 351.764 L 925.991 352.028 926.246 463.264 L 926.500 574.500 954.934 574.766 C 970.573 574.912, 983.713 574.687, 984.135 574.266 C 984.557 573.845, 971.876 573.626, 955.956 573.780 L 927.009 574.059 926.754 462.780 L 926.500 351.500 894.763 351.236 L 863.025 350.972 862.744 315.736 L 862.462 280.500 862.481 316 M 1001.250 351.748 C 1010.462 351.913, 1025.537 351.913, 1034.750 351.748 C 1043.963 351.583, 1036.425 351.448, 1018 351.448 C 999.575 351.448, 992.038 351.583, 1001.250 351.748 M 588.467 424.500 C 588.467 455.300, 588.594 468.044, 588.749 452.821 C 588.904 437.598, 588.905 412.398, 588.749 396.821 C 588.594 381.244, 588.467 393.700, 588.467 424.500 M 474.750 474.747 C 482.038 474.918, 493.962 474.918, 501.250 474.747 C 508.538 474.577, 502.575 474.437, 488 474.437 C 473.425 474.437, 467.462 474.577, 474.750 474.747 M 588.349 496 C 588.349 500.675, 588.522 502.587, 588.732 500.250 C 588.943 497.913, 588.943 494.087, 588.732 491.750 C 588.522 489.413, 588.349 491.325, 588.349 496 M 523.750 574.749 C 539.288 574.904, 564.713 574.904, 580.250 574.749 C 595.788 574.594, 583.075 574.468, 552 574.468 C 520.925 574.468, 508.213 574.594, 523.750 574.749 M 402.432 657 C 402.432 670.475, 402.574 675.987, 402.747 669.250 C 402.920 662.513, 402.920 651.487, 402.747 644.750 C 402.574 638.013, 402.432 643.525, 402.432 657 M 552.432 657 C 552.432 670.475, 552.574 675.987, 552.747 669.250 C 552.920 662.513, 552.920 651.487, 552.747 644.750 C 552.574 638.013, 552.432 643.525, 552.432 657 M 583.806 647.002 C 583.638 654.153, 583.837 660.003, 584.250 660.002 C 584.663 660.001, 585 654.150, 585 647 C 585 639.850, 584.800 634, 584.556 634 C 584.311 634, 583.974 639.851, 583.806 647.002 M 907.415 652 C 907.415 662.175, 907.564 666.337, 907.745 661.250 C 907.927 656.163, 907.927 647.837, 907.745 642.750 C 907.564 637.663, 907.415 641.825, 907.415 652 M 1021.431 657.500 C 1021.432 670.700, 1021.574 675.962, 1021.747 669.193 C 1021.921 662.424, 1021.920 651.624, 1021.746 645.193 C 1021.572 638.762, 1021.431 644.300, 1021.431 657.500 M 759.428 658 C 759.428 670.375, 759.571 675.438, 759.747 669.250 C 759.922 663.063, 759.922 652.938, 759.747 646.750 C 759.571 640.563, 759.428 645.625, 759.428 658 M 1082.423 660.500 C 1082.424 672.050, 1082.570 676.638, 1082.747 670.696 C 1082.924 664.753, 1082.923 655.303, 1082.745 649.696 C 1082.567 644.088, 1082.422 648.950, 1082.423 660.500 M 483.280 653.736 C 485.909 653.943, 489.959 653.940, 492.280 653.731 C 494.601 653.521, 492.450 653.352, 487.500 653.355 C 482.550 653.358, 480.651 653.530, 483.280 653.736 M 968.168 657.193 L 968 661.885 963.750 662.268 L 959.500 662.651 963.781 662.825 C 968.670 663.025, 969.335 662.157, 968.735 656.355 C 968.351 652.648, 968.330 652.680, 968.168 657.193 M 851.389 668.500 C 851.390 675.650, 851.550 678.444, 851.742 674.708 C 851.935 670.973, 851.934 665.123, 851.739 661.708 C 851.545 658.294, 851.387 661.350, 851.389 668.500 M 1070.349 664 C 1070.349 668.675, 1070.522 670.587, 1070.732 668.250 C 1070.943 665.913, 1070.943 662.087, 1070.732 659.750 C 1070.522 657.413, 1070.349 659.325, 1070.349 664 M 376.250 662.739 C 379.413 662.937, 384.587 662.937, 387.750 662.739 C 390.913 662.541, 388.325 662.378, 382 662.378 C 375.675 662.378, 373.087 662.541, 376.250 662.739 M 526.287 662.740 C 529.469 662.939, 534.419 662.937, 537.287 662.736 C 540.154 662.535, 537.550 662.372, 531.500 662.374 C 525.450 662.376, 523.104 662.541, 526.287 662.740 M 649.349 672 C 649.349 676.675, 649.522 678.587, 649.732 676.250 C 649.943 673.913, 649.943 670.087, 649.732 667.750 C 649.522 665.413, 649.349 667.325, 649.349 672" stroke="none" fill="#fad403" fill-rule="evenodd"/>
  <path d="M 836.049 200.027 C 834.701 202.212, 833.238 204, 832.799 204 C 832.360 204, 832 204.679, 832 205.509 C 832 206.339, 830.650 208.431, 829 210.157 C 827.350 211.884, 826 213.905, 826 214.648 C 826 215.392, 825.656 216, 825.236 216 C 824.816 216, 823.360 217.800, 822 220 C 820.640 222.200, 819.214 224, 818.831 224 C 818.448 224, 817.850 224.897, 817.502 225.994 C 817.154 227.091, 816.319 228.553, 815.648 229.244 C 814.976 229.935, 812.418 233.425, 809.963 237 C 807.508 240.575, 805.275 243.725, 805 244 C 804.725 244.275, 802.489 247.425, 800.031 251 C 797.573 254.575, 794.760 258.372, 793.781 259.439 C 792.801 260.505, 792 261.967, 792 262.689 C 792 263.410, 791.626 264, 791.169 264 C 790.712 264, 789.702 265.238, 788.926 266.750 C 788.149 268.262, 786.723 270.228, 785.757 271.117 C 784.791 272.007, 784 273.159, 784 273.679 C 784 274.198, 783.200 275.495, 782.223 276.561 C 781.245 277.628, 779.348 280.075, 778.006 282 C 776.664 283.925, 774.989 286.095, 774.283 286.821 C 773.577 287.548, 773 288.491, 773 288.916 C 773 289.341, 771.876 290.996, 770.501 292.594 C 769.127 294.193, 768.002 296.063, 768.001 296.750 C 768.001 297.438, 767.656 298, 767.236 298 C 766.816 298, 765.360 299.800, 764 302 C 762.640 304.200, 761.239 306, 760.885 306 C 760.532 306, 759.683 307.350, 759 309 C 758.317 310.650, 757.459 312, 757.094 312 C 756.730 312, 755.698 313.238, 754.802 314.750 C 753.907 316.262, 752.010 318.850, 750.588 320.500 C 749.166 322.150, 748.002 324.063, 748.001 324.750 C 748.001 325.438, 747.647 326, 747.216 326 C 746.784 326, 745.643 327.334, 744.681 328.964 C 743.718 330.594, 742.378 332.506, 741.702 333.214 C 741.027 333.921, 738.456 337.535, 735.987 341.245 C 733.519 344.955, 731.163 347.992, 730.750 347.995 C 730.337 347.998, 730 348.590, 730 349.311 C 730 350.033, 729.212 351.495, 728.250 352.561 C 727.288 353.628, 725.375 356.184, 724 358.243 C 722.625 360.302, 721.163 361.989, 720.750 361.993 C 720.337 361.997, 720 362.590, 720 363.311 C 720 364.033, 719.191 365.495, 718.201 366.561 C 717.212 367.628, 714.431 371.425, 712.022 375 C 709.613 378.575, 706.822 382.228, 705.821 383.117 C 704.819 384.007, 704 385.469, 704 386.367 C 704 387.265, 703.663 388.003, 703.250 388.007 C 702.837 388.011, 701.376 389.698, 700.001 391.757 C 698.627 393.816, 696.940 396.095, 696.251 396.821 C 695.563 397.548, 695 398.513, 695 398.966 C 695 399.418, 693.650 401.234, 692 403 C 690.350 404.766, 689 406.544, 689 406.950 C 689 407.357, 687.876 408.996, 686.501 410.594 C 685.127 412.193, 684.002 413.856, 684.001 414.292 C 684.001 414.727, 683.074 416.077, 681.942 417.292 L 679.884 419.500 707.942 419.766 L 736 420.031 736 422.969 C 736 424.584, 735.599 426.940, 735.109 428.203 C 734.619 429.466, 733.223 433.875, 732.006 438 C 730.790 442.125, 729.391 446.281, 728.897 447.236 C 728.404 448.191, 728 450.104, 728 451.486 C 728 452.869, 727.550 454, 727 454 C 726.450 454, 726 454.981, 726 456.179 C 726 458.481, 724.351 464.319, 722.877 467.236 C 722.395 468.191, 722 469.885, 722 471 C 722 472.115, 721.589 473.809, 721.086 474.764 C 719.872 477.071, 713.988 496.153, 713.995 497.764 C 713.998 498.459, 713.596 499.809, 713.103 500.764 C 712.609 501.719, 711.259 505.762, 710.103 509.750 C 708.946 513.737, 707.054 520.263, 705.897 524.250 C 704.741 528.237, 703.391 532.281, 702.897 533.236 C 702.404 534.191, 702 535.852, 702 536.927 C 702 538.002, 701.600 539.129, 701.110 539.432 C 700.621 539.734, 699.946 541.561, 699.610 543.491 C 699.275 545.421, 698.726 548.575, 698.391 550.500 C 698.055 552.425, 697.380 554, 696.891 554 C 696.401 554, 696 555.350, 696 557 C 696 558.650, 695.550 560, 695 560 C 694.450 560, 694 560.981, 694 562.179 C 694 564.180, 692.850 568.483, 690.975 573.500 C 690.564 574.600, 689.683 577.525, 689.017 580 C 688.350 582.475, 687.399 585.281, 686.903 586.236 C 686.406 587.191, 686 589.302, 686 590.927 C 686 592.552, 685.550 594.160, 685 594.500 C 684.450 594.840, 684 596.216, 684 597.559 C 684 598.902, 684.450 600, 685 600 C 685.550 600, 686 599.392, 686 598.648 C 686 597.905, 687.350 595.884, 689 594.157 C 690.650 592.431, 692 590.339, 692 589.509 C 692 588.679, 692.374 588, 692.831 588 C 693.288 588, 694.301 586.763, 695.081 585.250 C 695.861 583.737, 697.288 581.628, 698.250 580.561 C 699.212 579.495, 700 578.070, 700 577.395 C 700 576.719, 700.351 576.017, 700.780 575.833 C 701.210 575.650, 707.137 567.175, 713.952 557 C 720.767 546.825, 726.716 538.350, 727.172 538.167 C 727.627 537.983, 728 537.175, 728 536.371 C 728 535.567, 729.125 533.784, 730.500 532.409 C 731.875 531.034, 733 529.550, 733 529.110 C 733 528.671, 734.124 527.004, 735.499 525.406 C 736.873 523.807, 737.998 521.938, 737.999 521.250 C 737.999 520.563, 738.420 520, 738.933 520 C 739.446 520, 740.133 519.155, 740.461 518.122 C 740.789 517.090, 742.169 514.952, 743.527 513.372 C 744.886 511.793, 745.998 509.938, 745.999 509.250 C 745.999 508.563, 746.395 508, 746.879 508 C 747.362 508, 748.317 506.650, 749 505 C 749.683 503.350, 750.638 502, 751.121 502 C 751.605 502, 752 501.410, 752 500.689 C 752 499.967, 752.900 498.411, 754 497.230 C 755.100 496.050, 756.001 494.727, 756.001 494.292 C 756.002 493.856, 757.127 492.193, 758.501 490.594 C 759.876 488.996, 761 487.370, 761 486.980 C 761 486.590, 762.273 484.813, 763.829 483.031 C 765.385 481.249, 767.522 478.150, 768.579 476.145 C 769.636 474.140, 771.288 471.628, 772.250 470.561 C 773.212 469.495, 774 468.132, 774 467.532 C 774 466.932, 774.900 465.793, 776 465 C 777.100 464.207, 778 462.758, 778 461.779 C 778 460.801, 778.420 460, 778.933 460 C 779.446 460, 780.150 459.103, 780.498 458.006 C 780.846 456.909, 781.664 455.447, 782.316 454.756 C 783.972 452.999, 794 438.171, 794 437.478 C 794 437.165, 795.090 435.819, 796.422 434.487 C 797.755 433.154, 799.135 431.150, 799.490 430.032 C 799.845 428.914, 800.554 428, 801.067 428 C 801.580 428, 802 427.137, 802 426.083 C 802 425.029, 802.377 424.017, 802.839 423.833 C 803.300 423.650, 807.442 417.875, 812.044 411 C 816.646 404.125, 820.965 397.935, 821.640 397.244 C 822.316 396.553, 823.154 395.091, 823.502 393.994 C 823.850 392.897, 824.554 392, 825.067 392 C 825.580 392, 826 391.410, 826 390.689 C 826 389.967, 826.945 388.363, 828.101 387.122 C 829.256 385.882, 829.893 384.560, 829.517 384.184 C 829.141 383.808, 816.945 383.500, 802.416 383.500 L 776 383.500 776 380.750 C 776 379.238, 776.450 378, 777 378 C 777.550 378, 778 376.688, 778 375.083 C 778 373.479, 778.338 372.017, 778.752 371.833 C 779.672 371.425, 784 358.870, 784 356.608 C 784 355.712, 784.868 353.071, 785.928 350.739 C 786.989 348.408, 789.254 342.225, 790.963 337 C 792.672 331.775, 794.504 326.719, 795.035 325.764 C 795.566 324.809, 796 323.121, 796 322.014 C 796 320.906, 796.450 320, 797 320 C 797.550 320, 798 318.965, 798 317.700 C 798 316.435, 798.358 314.973, 798.796 314.450 C 799.234 313.928, 800.163 311.700, 800.862 309.500 C 801.561 307.300, 802.490 304.600, 802.928 303.500 C 803.365 302.400, 804.265 299.700, 804.928 297.500 C 805.590 295.300, 806.501 292.600, 806.952 291.500 C 807.403 290.400, 808.371 287.475, 809.104 285 C 809.836 282.525, 810.964 279.456, 811.610 278.180 C 812.256 276.905, 814.503 270.605, 816.603 264.180 C 818.703 257.756, 820.777 252.350, 821.211 252.167 C 821.645 251.983, 822 250.547, 822 248.976 C 822 247.404, 822.450 245.840, 823 245.500 C 823.550 245.160, 824 243.784, 824 242.441 C 824 241.098, 824.450 240, 825 240 C 825.550 240, 826 238.902, 826 237.559 C 826 236.216, 826.450 234.840, 827 234.500 C 827.550 234.160, 828 232.874, 828 231.641 C 828 230.408, 828.379 228.973, 828.842 228.450 C 829.306 227.928, 830.768 224.015, 832.092 219.755 C 833.417 215.495, 834.837 212.008, 835.250 212.005 C 835.663 212.002, 836 210.902, 836 209.559 C 836 208.216, 836.450 206.840, 837 206.500 C 837.550 206.160, 838 204.810, 838 203.500 C 838 202.190, 838.450 200.840, 839 200.500 C 840.156 199.785, 840.369 195.987, 839.250 196.027 C 838.837 196.042, 837.397 197.842, 836.049 200.027 M 590.237 279.750 L 539.975 280.019 540.237 315.759 L 540.500 351.500 564.500 351.767 L 588.500 352.034 588.278 420.267 C 588.156 457.795, 588.043 491.988, 588.028 496.250 L 588 504 551 504 L 514 504 514 488.961 L 514 473.923 486.250 474.211 L 458.500 474.500 458.500 507.500 C 458.500 544.164, 459.114 549.449, 464.394 558.245 C 469.917 567.445, 477.562 571.657, 493.139 574.085 C 497.368 574.744, 520.603 574.980, 557.139 574.736 C 604.240 574.422, 615.484 574.084, 620 572.847 C 635.045 568.727, 642.651 560.880, 646.095 545.925 C 647.049 541.781, 647.430 509.820, 647.708 410.581 C 648.098 270.907, 648.380 278.771, 643 279.256 C 641.625 279.380, 617.882 279.602, 590.237 279.750 M 862.237 315.750 L 862.500 351.500 894.246 351.764 L 925.991 352.028 926.246 463.264 L 926.500 574.500 955.500 574.500 L 984.500 574.500 984.754 463.250 L 985.009 352 1018.004 352 L 1051 352 1051 316 L 1051 280 956.487 280 L 861.975 280 862.237 315.750 M 950.620 624.418 C 948.629 626.848, 947 629.098, 947 629.418 C 947 629.738, 948.491 630, 950.312 630 C 952.658 630, 955.271 628.760, 959.264 625.750 C 962.366 623.413, 964.925 621.163, 964.952 620.750 C 964.978 620.337, 962.579 620, 959.620 620 C 954.472 620, 954.085 620.190, 950.620 624.418 M 474.500 632.681 C 465.319 634.743, 459.904 638.864, 456.351 646.493 C 452.167 655.477, 453.544 666.276, 459.748 673.143 C 465.725 679.759, 470.049 681.500, 480.500 681.500 C 488.732 681.500, 489.969 681.234, 495 678.383 L 500.500 675.266 500.782 664.769 L 501.065 654.272 497.282 653.647 C 495.202 653.303, 490.238 653.017, 486.250 653.011 L 479 653 479 657.883 C 479 663.155, 479.950 663.955, 486.250 663.986 C 488.483 663.997, 489 664.452, 489 666.402 C 489 668.197, 488.204 669.082, 485.851 669.902 C 481.501 671.419, 479.158 671.255, 474.424 669.105 C 465.129 664.883, 464.470 651.343, 473.299 645.960 C 477.566 643.358, 484.506 643.401, 488.863 646.058 C 490.712 647.185, 492.313 647.971, 492.420 647.804 C 492.527 647.637, 494.073 645.608, 495.855 643.296 L 499.096 639.092 495.298 636.595 C 489.678 632.901, 480.888 631.246, 474.500 632.681 M 1108.718 633.092 C 1103.135 634.406, 1099.689 636.452, 1096.023 640.626 C 1091.481 645.800, 1089.996 649.904, 1090.022 657.218 C 1090.071 671.287, 1099.319 680.712, 1114.116 681.775 C 1121.340 682.293, 1130.698 679.951, 1131.685 677.378 C 1132.272 675.849, 1130.738 671.603, 1128.543 668.679 C 1127.272 666.987, 1126.961 666.969, 1124.137 668.429 C 1120.281 670.423, 1112.771 670.450, 1108.967 668.483 C 1103.626 665.721, 1101.275 656.967, 1104.279 651.030 C 1107.426 644.811, 1117.661 642.010, 1124.399 645.524 C 1125.993 646.355, 1127.395 646.915, 1127.514 646.768 C 1127.633 646.621, 1128.907 644.611, 1130.344 642.303 L 1132.958 638.106 1130.229 636.167 C 1124.869 632.357, 1116.760 631.198, 1108.718 633.092 M 359.667 633.667 C 359.300 634.033, 359 644.833, 359 657.667 L 359 681 377.552 681 L 396.105 681 395.802 675.750 L 395.500 670.500 383.500 670 L 371.500 669.500 371.187 666.250 L 370.873 663 381.937 663 L 393 663 393 657.534 L 393 652.068 382.250 651.784 L 371.500 651.500 371.500 648 L 371.500 644.500 383.250 644.218 L 395 643.937 395 638.468 L 395 633 377.667 633 C 368.133 633, 360.033 633.300, 359.667 633.667 M 402 657 L 402 681 408.471 681 L 414.942 681 415.221 668.064 L 415.500 655.128 425.786 668.064 L 436.072 681 441.536 681 L 447 681 447 657 L 447 633 441 633 L 435 633 434.962 646.750 L 434.925 660.500 431.477 656.500 C 429.581 654.300, 424.761 648.133, 420.765 642.796 L 413.500 633.093 407.750 633.046 L 402 633 402 657 M 509.016 633.750 C 509.025 634.163, 508.842 642.150, 508.609 651.500 C 508.376 660.850, 508.434 671.313, 508.737 674.750 L 509.289 681 527.145 681 L 545 681 545 675.500 L 545 670 533 670 L 521 670 521 666.534 L 521 663.068 531.750 662.784 L 542.500 662.500 542.802 657.250 L 543.105 652 532.052 652 L 521 652 521 648 L 521 644 533 644 L 545 644 545 638.500 L 545 633 527 633 C 517.100 633, 509.007 633.337, 509.016 633.750 M 552 657 L 552 681 558.471 681 L 564.942 681 565.221 667.994 L 565.500 654.988 573 664.628 C 586.324 681.754, 585.468 681, 591.604 681 L 597 681 597 656.952 L 597 632.905 590.750 633.202 L 584.500 633.500 584 646.363 L 583.500 659.227 575.565 649.089 C 571.201 643.513, 566.701 637.620, 565.565 635.993 C 563.687 633.302, 562.980 633.033, 557.750 633.017 L 552 633 552 657 M 606 657 L 606 681 611.961 681 L 617.922 681 618.211 672.250 L 618.500 663.500 627.750 663.212 L 637 662.925 637 672.010 L 637 681.095 643.250 680.798 L 649.500 680.500 649.480 657 L 649.461 633.500 643.230 633.202 L 637 632.905 637 642.490 L 637 652.075 627.750 651.788 L 618.500 651.500 618.212 642.250 L 617.925 633 611.962 633 L 606 633 606 657 M 671.360 638.750 C 669.968 641.913, 668.216 645.850, 667.465 647.500 C 666.715 649.150, 663.202 657.362, 659.659 665.750 L 653.218 681 660.010 681 L 666.802 681 668.651 676.465 L 670.500 671.929 680.214 672.087 L 689.928 672.245 691.600 676.623 L 693.272 681 700.043 681 L 706.815 681 703.309 672.750 C 701.380 668.212, 697.557 659.100, 694.813 652.500 C 692.069 645.900, 689.120 638.813, 688.260 636.750 L 686.697 633 680.293 633 L 673.890 633 671.360 638.750 M 711 657 L 711 681 717 681 L 723 681 723 673.500 L 723 666 725.970 666 C 728.548 666, 729.605 666.987, 734 673.500 L 739.061 681 746.030 681 C 749.864 681, 752.984 680.663, 752.964 680.250 C 752.944 679.837, 750.520 676.140, 747.579 672.034 L 742.230 664.568 746.269 660.984 C 749.702 657.937, 750.407 656.620, 750.974 652.199 C 752.212 642.553, 748.212 636.298, 739.385 634.075 C 737.036 633.484, 729.689 633, 723.057 633 L 711 633 711 657 M 759.449 634.273 C 759.180 634.973, 759.082 645.660, 759.230 658.023 L 759.500 680.500 765.750 680.798 L 772 681.095 772 657.048 L 772 633 765.969 633 C 762.009 633, 759.769 633.437, 759.449 634.273 M 795.662 633.750 C 794.983 634.865, 776 680.069, 776 680.570 C 776 680.807, 778.950 681, 782.556 681 L 789.112 681 791.119 676.465 L 793.125 671.929 802.722 672.215 L 812.319 672.500 813.866 676.750 L 815.413 681 822.192 681 L 828.971 681 827.097 676.250 C 824.531 669.747, 821.114 661.596, 815.254 648 C 812.528 641.675, 810.020 635.712, 809.680 634.750 C 809.178 633.327, 807.853 633, 802.590 633 C 799.031 633, 795.913 633.337, 795.662 633.750 M 851.667 633.667 C 851.300 634.033, 851 644.833, 851 657.667 L 851 681 869.500 681 L 888 681 888 675.500 L 888 670 876 670 L 864 670 864 666.617 L 864 663.235 871.481 662.534 C 875.596 662.148, 880.321 662.131, 881.981 662.496 L 885 663.159 885 657.579 L 885 652 874.500 652 L 864 652 864 648 L 864 644 875.500 644 L 887 644 887 638.500 L 887 633 869.667 633 C 860.133 633, 852.033 633.300, 851.667 633.667 M 895 656.952 L 895 681 912 681 L 929 681 929 675.500 L 929 670 918.523 670 L 908.045 670 907.773 651.750 L 907.500 633.500 901.250 633.202 L 895 632.905 895 656.952 M 934.708 633.727 C 934.467 634.152, 934.329 644.850, 934.402 657.500 L 934.535 680.500 952.767 680.773 L 971 681.045 971 675.523 L 971 670 959 670 L 947 670 947 666.500 C 947 662.455, 946.496 662.621, 959 662.552 L 968.500 662.500 968.500 657.500 L 968.500 652.500 957.750 652.216 L 947 651.932 947 647.998 L 947 644.063 958.750 643.782 L 970.500 643.500 970.500 638.500 L 970.500 633.500 952.823 633.227 C 943.101 633.077, 934.949 633.302, 934.708 633.727 M 975.667 633.667 C 975.300 634.033, 975 636.508, 975 639.167 L 975 644 982 644 L 989 644 989 662.500 L 989 681 995.500 681 L 1002 681 1002 662.500 L 1002 644 1009 644 L 1016 644 1016 638.500 L 1016 633 996.167 633 C 985.258 633, 976.033 633.300, 975.667 633.667 M 1021.667 633.667 C 1021.300 634.033, 1021 644.833, 1021 657.667 L 1021 681 1027.500 681 L 1034 681 1034 673.500 L 1034 666 1036.950 666 C 1039.498 666, 1040.562 666.988, 1044.762 673.250 L 1049.625 680.500 1056.813 680.794 C 1060.766 680.955, 1064 680.876, 1064 680.616 C 1064 680.357, 1061.606 676.678, 1058.679 672.442 L 1053.358 664.738 1057.274 661.086 C 1066.426 652.548, 1062.896 637.289, 1051.004 633.985 C 1047.077 632.894, 1022.704 632.629, 1021.667 633.667 M 1070 657 L 1070 681 1076.500 681 L 1083 681 1083 657 L 1083 633 1076.500 633 L 1070 633 1070 657 M 1152.046 637.250 C 1145.509 652.333, 1134 679.828, 1134 680.361 C 1134 680.713, 1137.057 681, 1140.793 681 L 1147.587 681 1149.136 676.750 L 1150.686 672.500 1160.500 672.500 L 1170.314 672.500 1171.864 676.750 L 1173.413 681 1180.182 681 C 1186.793 681, 1186.930 680.948, 1186.079 678.750 C 1183.652 672.481, 1172.421 645.650, 1169.755 639.750 L 1166.704 633 1160.296 633 L 1153.888 633 1152.046 637.250 M 723 650.120 L 723 656.240 729.149 655.796 C 734.023 655.443, 735.681 654.877, 737.149 653.065 C 739.519 650.137, 739.485 648.485, 737 646 C 735.444 644.444, 733.667 644, 729 644 L 723 644 723 650.120 M 1034 650.102 L 1034 656.204 1040.250 655.633 C 1047.261 654.992, 1050.562 652.465, 1049.422 648.611 C 1048.405 645.172, 1045.962 644, 1039.809 644 L 1034 644 1034 650.102 M 799.661 653.996 C 798.197 657.371, 797 660.552, 797 661.066 C 797 661.580, 799.455 662, 802.456 662 L 807.911 662 806.551 658.250 C 805.803 656.188, 804.546 653.006, 803.757 651.180 L 802.322 647.860 799.661 653.996 M 1157.644 654.416 C 1156.190 658.049, 1155 661.241, 1155 661.511 C 1155 661.780, 1157.475 662, 1160.500 662 C 1163.525 662, 1166 661.820, 1166 661.599 C 1166 661.378, 1164.715 658.186, 1163.144 654.504 L 1160.289 647.810 1157.644 654.416 M 677.185 655.152 C 675.968 658.536, 675.153 661.486, 675.375 661.708 C 675.597 661.931, 678.034 661.974, 680.789 661.806 L 685.800 661.500 683.294 655.250 C 681.916 651.813, 680.476 649, 680.094 649 C 679.711 649, 678.403 651.769, 677.185 655.152" stroke="none" fill="#1a1a1a" fill-rule="evenodd"/>
  <path d="M 541 315.482 L 541 350.964 564.750 351.232 L 588.500 351.500 588.756 427.664 L 589.012 503.828 577.256 504.164 C 570.790 504.349, 553.913 504.343, 539.750 504.152 L 514 503.803 514 489.386 L 514 474.968 486.250 475.234 L 458.500 475.500 458.500 508 C 458.500 531.023, 458.871 541.958, 459.773 545.500 C 463.910 561.753, 470.360 568.447, 485.716 572.426 C 490.918 573.774, 500.439 573.998, 552.144 573.983 C 615.124 573.965, 621.031 573.621, 628.974 569.514 C 633.802 567.017, 639.926 561.066, 642.147 556.712 C 646.995 547.208, 646.964 548.160, 646.983 409.750 L 647 280 594 280 L 541 280 541 315.482 M 863 315.486 L 863 350.972 894.750 351.236 L 926.500 351.500 926.754 462.765 L 927.009 574.031 955.754 573.765 L 984.500 573.500 984.754 462.250 L 985.009 351 1018.004 351 L 1051 351 1051 315.500 L 1051 280 957 280 L 863 280 863 315.486 M 955.418 620.850 C 954.273 621.207, 951.863 623.188, 950.064 625.250 L 946.793 629 950.334 629 C 952.777 629, 955.588 627.837, 959.400 625.250 C 962.438 623.188, 964.941 621.163, 964.962 620.750 C 965.007 619.857, 958.375 619.926, 955.418 620.850 M 1110 633.128 C 1095.860 635.426, 1086.979 650.068, 1090.898 664.621 C 1092.331 669.943, 1098.888 677.338, 1103.981 679.376 C 1110.499 681.984, 1117.962 682.448, 1124.087 680.628 C 1132.655 678.080, 1132.819 677.865, 1130.238 672.552 C 1129.021 670.048, 1127.683 668.007, 1127.263 668.015 C 1126.843 668.023, 1124.506 668.723, 1122.069 669.572 C 1116.359 671.560, 1110.750 670.642, 1106.744 667.063 C 1104.211 664.799, 1103.615 663.401, 1103.236 658.832 C 1102.664 651.932, 1104.576 647.904, 1109.542 645.547 C 1113.143 643.838, 1120.720 643.780, 1125.533 645.425 C 1127.162 645.982, 1128.091 645.318, 1130.203 642.092 L 1132.840 638.064 1129.550 636.031 C 1127.029 634.473, 1116.262 631.449, 1115.614 632.117 C 1115.551 632.181, 1113.025 632.636, 1110 633.128 M 359.501 635.226 C 359.199 636.477, 359.075 647.175, 359.226 659 L 359.500 680.500 377.250 680.773 L 395 681.046 395 675.416 C 395 670.505, 394.781 669.870, 393.282 670.445 C 392.337 670.808, 386.937 670.795, 381.282 670.416 L 371 669.727 371 665.864 L 371 662 382 662 L 393 662 393 657 L 393 652 382 652 L 371 652 371 648 L 371 644 383.052 644 L 395.105 644 394.802 638.750 L 394.500 633.500 377.275 633.226 C 360.085 632.954, 360.049 632.958, 359.501 635.226 M 403 657 L 403 681 409 681 L 415 681 415.007 667.250 C 415.013 653.859, 415.059 653.567, 416.757 656.066 C 417.715 657.478, 422.483 663.665, 427.352 669.816 L 436.204 681 441.602 681 L 447 681 447 657 L 447 633 441 633 L 435 633 435 646.500 C 435 653.925, 434.663 659.975, 434.250 659.945 C 433.554 659.894, 429.856 655.285, 417.693 639.313 C 412.934 633.062, 412.838 633, 407.943 633 L 403 633 403 657 M 467.383 635.402 C 461.450 638.165, 457.422 642.949, 455.416 649.614 C 453.608 655.619, 453.634 658.405, 455.556 664.878 C 458.828 675.894, 467.492 681.521, 481.112 681.474 C 487.646 681.452, 489.559 681.011, 494.612 678.366 L 500.500 675.284 500.500 664.892 L 500.500 654.500 489.750 654.216 L 479 653.932 479 658.411 L 479 662.890 483.750 663.195 C 488.100 663.474, 488.527 663.732, 488.816 666.250 C 489.069 668.443, 488.601 669.201, 486.501 670 C 480.140 672.418, 472.281 670.092, 468.966 664.810 C 465.906 659.935, 466.643 652.025, 470.536 647.962 C 475.465 642.818, 482.593 642.026, 489.296 645.879 C 492.062 647.469, 492.129 647.443, 495.489 643.493 C 498.614 639.820, 498.751 639.391, 497.193 638.141 C 490.098 632.445, 476.430 631.189, 467.383 635.402 M 509 656.977 L 509 681 527.052 681 L 545.105 681 544.802 675.750 L 544.500 670.500 535 670.300 C 529.775 670.190, 524.487 670.078, 523.250 670.050 C 521.300 670.007, 521 669.467, 521 666 L 521 662 532 662 L 543 662 543 657 L 543 652 532 652 L 521 652 521 648.032 L 521 644.063 532.750 643.782 L 544.500 643.500 544.500 638.500 L 544.500 633.500 526.750 633.227 L 509 632.954 509 656.977 M 553 657.050 L 553 681.100 558.750 680.800 L 564.500 680.500 565 667.623 L 565.500 654.745 571.724 662.623 C 575.147 666.955, 579.788 672.885, 582.037 675.800 L 586.126 681.100 591.313 680.800 L 596.500 680.500 596.500 657 L 596.500 633.500 590.750 633.200 L 585 632.900 585 646.450 C 585 653.903, 584.663 659.979, 584.250 659.953 C 583.837 659.927, 578.848 653.852, 573.162 646.453 L 562.825 633 557.912 633 L 553 633 553 657.050 M 606 657.050 L 606 681.100 611.750 680.800 L 617.500 680.500 618 671.500 L 618.500 662.500 627.500 662.439 L 636.500 662.379 637 671.439 L 637.500 680.500 643.250 680.800 L 649 681.100 649 657 L 649 632.900 643.250 633.200 L 637.500 633.500 637.212 642.750 L 636.925 652 627.462 652 L 618 652 618 642.500 L 618 633 612 633 L 606 633 606 657.050 M 673.035 635.409 C 672.531 636.734, 670.542 641.346, 668.614 645.659 C 663.807 656.414, 654 679.754, 654 680.440 C 654 680.748, 656.864 681, 660.364 681 L 666.728 681 668.447 676.500 L 670.165 672 680.036 672 L 689.906 672 691.897 676.500 L 693.888 681 699.944 681 C 703.275 681, 706 680.728, 706 680.395 C 706 679.832, 702.892 672.246, 691.196 644.266 L 686.500 633.032 680.225 633.016 C 674.509 633.001, 673.869 633.214, 673.035 635.409 M 711 656.889 L 711 681 717 681 L 723 681 723 673.500 L 723 666 726.250 666.030 C 729.171 666.056, 730.005 666.817, 734.484 673.530 L 739.467 681 746.349 681 L 753.230 681 751.708 678.678 C 750.872 677.401, 748.333 673.709, 746.067 670.474 L 741.947 664.592 745.094 662.129 C 751.199 657.352, 752.951 647.191, 748.747 640.952 C 744.505 634.657, 741.210 633.563, 725.250 633.148 L 711 632.778 711 656.889 M 759.849 633.945 C 759.657 634.516, 759.629 645.359, 759.786 658.040 L 760.072 681.098 765.786 680.799 L 771.500 680.500 771.500 657 L 771.500 633.500 765.849 633.203 C 762.567 633.031, 760.052 633.341, 759.849 633.945 M 796.476 633.765 C 795.683 634.335, 786.848 654.482, 776.290 679.799 C 775.871 680.805, 777.276 681.030, 782.535 680.799 L 789.322 680.500 790.867 676.250 L 792.413 672 802.242 672 L 812.071 672 814 676.500 L 815.929 681 821.964 681 C 825.479 681, 828 680.565, 828 679.959 C 828 678.345, 810.671 637.330, 808.687 634.250 C 807.817 632.898, 798.215 632.517, 796.476 633.765 M 851.941 635.250 C 851.687 645.045, 851.634 657.489, 851.802 668.273 L 852 681.046 869.750 680.773 L 887.500 680.500 887.805 675.750 C 888.020 672.390, 887.728 670.971, 886.805 670.901 C 886.087 670.847, 884.600 670.705, 883.500 670.586 C 882.400 670.467, 877.310 670.286, 872.190 670.185 L 862.879 670 863.190 666.250 L 863.500 662.500 874.250 662.216 L 885 661.932 885 657 L 885 652.068 874.250 651.784 L 863.500 651.500 863.500 648 L 863.500 644.500 875.250 644.218 L 887 643.937 887 638.468 L 887 633 869.500 633 C 852.036 633, 852 633.005, 851.941 635.250 M 895.449 634.273 C 895.180 634.973, 895.082 645.660, 895.230 658.023 L 895.500 680.500 912 680.500 L 928.500 680.500 928.500 675.500 L 928.500 670.500 917.750 670.216 L 907 669.932 907 651.466 L 907 633 901.469 633 C 897.914 633, 895.763 633.455, 895.449 634.273 M 935 657 L 935 681 953.052 681 L 971.105 681 970.802 675.888 L 970.500 670.776 964 670.566 C 960.425 670.450, 955.138 670.275, 952.250 670.178 L 947 670 947 666 L 947 662 957.500 662 L 968 662 968 657 L 968 652 957.500 652 L 947 652 947 648 L 947 644 958.500 644 L 970 644 970 638.500 L 970 633 952.500 633 L 935 633 935 657 M 975.862 636.229 C 975.058 643.500, 975.481 644, 982.433 644 L 988.726 644 989.423 653.498 C 989.807 658.722, 989.838 663.453, 989.493 664.012 C 989.147 664.570, 989.180 668.642, 989.566 673.060 L 990.266 681.092 995.883 680.796 L 1001.500 680.500 1001.773 662.250 L 1002.045 644 1009.075 644 L 1016.105 644 1015.802 638.750 L 1015.500 633.500 995.862 633.229 L 976.224 632.958 975.862 636.229 M 1022 656.939 L 1022 681.100 1027.750 680.800 L 1033.500 680.500 1033.794 673.250 L 1034.088 666 1037.294 666.013 C 1040.178 666.025, 1040.989 666.778, 1045.371 673.513 L 1050.242 681 1057.180 681 C 1061.793 681, 1063.899 680.646, 1063.466 679.945 C 1063.107 679.365, 1060.604 675.682, 1057.903 671.761 L 1052.991 664.631 1056.422 661.804 C 1058.309 660.248, 1060.388 657.354, 1061.043 655.371 C 1062.800 650.046, 1061.782 642.464, 1058.894 639.372 C 1054.220 634.369, 1051.479 633.620, 1036.250 633.185 L 1022 632.778 1022 656.939 M 1070.612 633.819 C 1070.301 634.322, 1070.186 645.031, 1070.355 657.617 L 1070.664 680.500 1076.332 680.800 L 1082 681.100 1082.099 660.800 C 1082.154 649.635, 1082.267 638.925, 1082.349 637 L 1082.500 633.500 1076.838 633.203 C 1073.724 633.039, 1070.922 633.317, 1070.612 633.819 M 1144.615 655.412 C 1139.329 667.739, 1134.722 678.561, 1134.377 679.461 C 1133.827 680.894, 1134.593 681.060, 1140.535 680.799 L 1147.322 680.500 1148.867 676.250 L 1150.413 672 1160.263 672 L 1170.112 672 1172.103 676.500 L 1174.094 681 1180.047 681 C 1183.390 681, 1186 680.557, 1186 679.990 C 1186 678.985, 1175.780 654.083, 1169.691 640.251 L 1166.500 633.002 1160.362 633.001 L 1154.225 633 1144.615 655.412 M 723 650.116 L 723 656.233 729.491 655.820 C 736.408 655.379, 738.903 653.690, 738.968 649.405 C 739.024 645.707, 735.930 644, 729.171 644 L 723 644 723 650.116 M 1034 650.116 L 1034 656.233 1040.491 655.820 C 1047.408 655.379, 1049.903 653.690, 1049.968 649.405 C 1050.024 645.707, 1046.930 644, 1040.171 644 L 1034 644 1034 650.116 M 676.844 655 L 674.221 662 680.218 662 C 684.613 662, 686.081 661.666, 685.717 660.750 C 682.494 652.643, 680.407 648.003, 679.983 648.001 C 679.699 648.001, 678.286 651.150, 676.844 655 M 800.121 652.343 C 798.950 655.006, 797.720 658.269, 797.387 659.593 C 796.802 661.924, 796.962 662, 802.459 662 C 808.913 662, 808.856 662.267, 804.487 652.500 L 802.251 647.500 800.121 652.343 M 1158.123 652.343 C 1156.951 655.006, 1155.720 658.269, 1155.387 659.593 C 1154.802 661.924, 1154.962 662, 1160.459 662 C 1166.929 662, 1166.902 662.121, 1162.528 652.500 L 1160.254 647.500 1158.123 652.343" stroke="none" fill="#fefefe" fill-rule="evenodd"/>
</svg>